<svg width="24" height="24" fill="none" xmlns="http://www.w3.org/2000/svg"><path fill-rule="evenodd" clip-rule="evenodd" d="M1.75 1.5a.25.25 0 00-.25.25v3.694a.75.75 0 01-1.5 0V1.75C0 .784.784 0 1.75 0h3.694a.75.75 0 010 1.5H1.75zm4.255 7.138V6.005h2.633v2.633H6.005zm-1.5-3.133a1 1 0 011-1h3.633a1 1 0 011 1v3.633a1 1 0 01-1 1H5.505a1 1 0 01-1-1V5.505zm9.95 3.133V6.005h2.632v2.633h-2.633zm-1.5-3.133a1 1 0 011-1h3.632a1 1 0 011 1v3.633a1 1 0 01-1 1h-3.633a1 1 0 01-1-1V5.505zm1.5 8.95v2.632h2.632v-2.633h-2.633zm-.5-1.5a1 1 0 00-1 1v3.632a1 1 0 001 1h3.632a1 1 0 001-1v-3.633a1 1 0 00-1-1h-3.633zm-7.95 4.132v-2.633h2.633v2.633H6.005zm-1.5-3.133a1 1 0 011-1h3.633a1 1 0 011 1v3.633a1 1 0 01-1 1H5.505a1 1 0 01-1-1v-3.633zm16.837 7.638a.25.25 0 00.25-.25v-3.694a.75.75 0 111.5 0v3.694a1.75 1.75 0 01-1.75 1.75h-3.694a.75.75 0 110-1.5h3.694zM1.5 21.342c0 .138.112.25.25.25h3.694a.75.75 0 010 1.5H1.75A1.75 1.75 0 010 21.342v-3.694a.75.75 0 111.5 0v3.694zM21.592 1.75a.25.25 0 00-.25-.25h-3.694a.75.75 0 110-1.5h3.694c.966 0 1.75.784 1.75 1.75v3.694a.75.75 0 01-1.5 0V1.75z" fill="#fff"/></svg>