<svg width="22" height="23" fill="none" xmlns="http://www.w3.org/2000/svg"><path fill-rule="evenodd" clip-rule="evenodd" d="M10.374 1.588a.25.25 0 01.381 0l8.812 10.358a.25.25 0 01-.19.412h-.63c-.69 0-1.25.56-1.25 1.25v7.549a.25.25 0 01-.25.25h-3.582V16.62a2 2 0 00-2-2H9.47a2 2 0 00-2 2v4.787H3.882a.25.25 0 01-.25-.25v-7.549c0-.69-.56-1.25-1.25-1.25h-.629a.25.25 0 01-.19-.412l8.811-10.358zm1.524-.972a1.75 1.75 0 00-2.666 0L.42 10.974c-.966 1.137-.159 2.884 1.333 2.884h.38v7.299c0 .966.783 1.75 1.75 1.75h13.364a1.75 1.75 0 001.75-1.75v-7.299h.38c1.491 0 2.3-1.747 1.332-2.883L11.898.616zM8.97 16.621a.5.5 0 01.5-.5h2.195a.5.5 0 01.5.5v4.75H8.97v-4.75z" fill="#252424"/></svg>