<svg width="22" height="24" fill="none" xmlns="http://www.w3.org/2000/svg"><path d="M10.836 5c.185-.742.07-1.615-.385-2.402C9.623 1.163 7.981.56 6.786 1.25c-1.044.603-1.403 2.299-.927 3.674M11.164 5c-.185-.742-.07-1.615.385-2.402.828-1.435 2.47-2.038 3.665-1.348 1.044.603 1.403 2.299.927 3.674M11 5v17.5M1.5 12h19" stroke="#7E839C" stroke-width="1.5"/><path d="M20 5H2a1 1 0 00-1 1v5.5a.5.5 0 00.5.5.5.5 0 01.5.5V22a1 1 0 001 1h16a1 1 0 001-1v-9.5a.5.5 0 01.5-.5.5.5 0 00.5-.5V6a1 1 0 00-1-1z" stroke="#7E839C" stroke-width="1.5"/></svg>