<svg width="24" height="23" fill="none" xmlns="http://www.w3.org/2000/svg"><g clip-path="url(#clip0_7_360)" fill="#fff"><path fill-rule="evenodd" clip-rule="evenodd" d="M.013 11.482C.013 5.134 5.193.004 11.565.004c6.371 0 11.552 5.13 11.552 11.478s-5.18 11.477-11.552 11.477C5.194 22.96.013 17.83.013 11.482zm11.552-8.91c-4.971 0-8.985 3.997-8.985 8.91 0 4.912 4.014 8.91 8.985 8.91 4.971 0 8.985-3.998 8.985-8.91 0-4.913-4.014-8.91-8.985-8.91z"/><path d="M11.566 5.54l1.838 3.435 3.859.673-2.723 2.797.547 3.852-3.52-1.707-3.522 1.707.547-3.852L5.87 9.648l3.86-.673 1.837-3.435z"/></g><defs><clipPath id="clip0_7_360"><path fill="#fff" d="M0 0h23.134v23H0z"/></clipPath></defs></svg>