<svg width="24" height="24" fill="none" xmlns="http://www.w3.org/2000/svg"><g clip-path="url(#clip0_7_336)" fill="#DF4826"><path fill-rule="evenodd" clip-rule="evenodd" d="M.445 11.982C.445 5.634 5.626.504 11.998.504c6.37 0 11.552 5.13 11.552 11.478s-5.181 11.477-11.552 11.477C5.626 23.46.445 18.33.445 11.982zm11.553-8.91c-4.971 0-8.985 3.997-8.985 8.91 0 4.912 4.014 8.91 8.985 8.91 4.97 0 8.985-3.998 8.985-8.91 0-4.913-4.014-8.91-8.985-8.91z"/><path d="M11.999 6.04l1.838 3.435 3.859.673-2.723 2.797.547 3.852-3.521-1.707-3.52 1.707.546-3.852-2.723-2.797 3.859-.673 1.838-3.435z"/></g><defs><clipPath id="clip0_7_336"><path fill="#fff" transform="translate(.433 .5)" d="M0 0h23.134v23H0z"/></clipPath></defs></svg>